<?xml version="1.0" encoding="utf-8"?>
<!-- Generator: Adobe Illustrator 25.4.1, SVG Export Plug-In . SVG Version: 6.00 Build 0)  -->
<svg version="1.1" id="Layer_1" xmlns="http://www.w3.org/2000/svg" xmlns:xlink="http://www.w3.org/1999/xlink" x="0px" y="0px"
	 viewBox="0 0 43.4 36.3" style="enable-background:new 0 0 43.4 36.3;" xml:space="preserve">
<style type="text/css">
	.st0{fill:#2667FF;}
</style>
<g>
	<path class="st0" d="M36.8,3.8c-6.6-5.6-18.3-5.2-24.3,2.7c-0.2,0.2-0.3,0.4-0.5,0.8c-2-3.9-5.1-5.1-8.8-5.1c0,1.5,0.4,2.6,2.6,6.5
		c-2,0.1-3.9,0.5-5.7,1.6c2,2.8,4.4,4.7,7.7,4.7c1.1-2.8,2.2-4,2.2-4c-0.7,1.4-1.2,4-1.2,4c0,0.5-0.1,0.9-0.1,1.2
		C7.3,26.5,12.9,34.6,22.3,36c3.6,0.5,7.1,0.4,10.5-0.9c6.2-2.3,10-7.1,10.5-14.4C43.9,13.9,41.9,8.1,36.8,3.8z M39.4,21.3
		c-0.5,2.7-2.1,4.3-4.6,4.9c-1.9,0.5-3.8,0.3-5.6-0.1c-1.9-0.4-3.9-0.5-5.8-0.1c-1.8,0.4-3.7,0.6-5.6,0.4c-3.3-0.3-5.5-3.1-5.4-6.5
		c0-2.8,1.5-4.6,3.8-5.8c2.2-1.2,4.6-1.7,7.2-1.9c1.9-0.2,3.8-0.2,5.7,0c0.1,0,0.1,0,0.2,0c2.7,0.3,5.4,0.9,7.7,2.6
		C39.1,16.5,39.9,18.7,39.4,21.3z"/>
	<path class="st0" d="M20.2,18c-1.8-0.6-3.7,0.1-4.1,1.4c-0.1,0.4-0.1,0.9,0,1.3c0.3,1.2,1.3,1.7,2.8,1.8c1.6,0,2.6-0.5,2.9-1.5
		C22.2,19.7,21.5,18.5,20.2,18z"/>
	<path class="st0" d="M34.2,18c-1.8-0.6-3.7,0.1-4.1,1.4c-0.1,0.4-0.1,0.9,0,1.3c0.3,1.2,1.3,1.7,2.8,1.8c1.6,0,2.6-0.5,2.9-1.5
		C36.3,19.7,35.6,18.5,34.2,18z"/>
</g>
</svg>
