<?xml version="1.0" encoding="utf-8"?>
<!-- Generator: Adobe Illustrator 25.4.1, SVG Export Plug-In . SVG Version: 6.00 Build 0)  -->
<svg version="1.1" id="Layer_1" xmlns="http://www.w3.org/2000/svg" xmlns:xlink="http://www.w3.org/1999/xlink" x="0px" y="0px"
	 viewBox="0 0 273.3 45.6" style="enable-background:new 0 0 273.3 45.6;" xml:space="preserve">
<style type="text/css">
	.st0{fill:#FFFFFF;}
	.st1{fill:#2667FF;}
</style>
<g>
	<path class="st0" d="M11.5,2L0,35.1h7.4l2.4-7.9h11.9l2.4,7.9h7.4L19.9,2H11.5z M11.5,21.4c2.3-7.6,3.7-12.4,4.2-14.3
		c0.1,0.5,0.3,1.3,0.6,2.2c0.3,0.9,1.5,5,3.7,12.1H11.5z"/>
	<path class="st0" d="M49.2,9.3c-1.7,0-3.2,0.3-4.5,0.9c-1.3,0.6-2.4,1.5-3.1,2.7h-0.4l-0.9-3.2H35v24.9h6.8V22.9
		c0-2.9,0.4-5,1.3-6.3c0.8-1.3,2.2-1.9,4.1-1.9c1.4,0,2.4,0.4,3.1,1.3c0.6,0.9,1,2.2,1,4v14.5H58V18.4c0-3-0.8-5.2-2.2-6.8
		C54.3,10.1,52.1,9.3,49.2,9.3z"/>
	<path class="st0" d="M107.4,9.3c-1.7,0-3.2,0.3-4.5,0.9c-1.3,0.6-2.4,1.5-3.1,2.7h-0.4l-0.9-3.2h-5.2v24.9h6.8V22.9
		c0-2.9,0.4-5,1.3-6.3c0.8-1.3,2.2-1.9,4.1-1.9c1.4,0,2.4,0.4,3.1,1.3c0.6,0.9,1,2.2,1,4v14.5h6.8V18.4c0-3-0.8-5.2-2.2-6.8
		C112.5,10.1,110.3,9.3,107.4,9.3z"/>
	<path class="st0" d="M133.7,23.8c-0.5,1.4-0.8,2.8-1,4.3h-0.1c-0.1-1.7-0.4-3.1-0.8-4.3l-4.7-14h-7.4l9.9,24.7l-0.4,1.2
		c-0.5,1.5-1.2,2.6-2.1,3.3c-0.9,0.7-1.9,1.1-3.2,1.1c-1,0-1.9-0.1-2.7-0.3v5.4c1.1,0.3,2.3,0.4,3.5,0.4c2.4,0,4.5-0.6,6.3-1.9
		c1.8-1.3,3.2-3.2,4.1-5.8l10.5-28.1h-7.3L133.7,23.8z"/>
	<path class="st0" d="M178.4,9.3c-1.6,0-3.1,0.3-4.4,1c-1.3,0.6-2.3,1.5-3,2.7h-0.6c-1.3-2.4-3.8-3.7-7.6-3.7c-1.6,0-3.1,0.3-4.3,1
		c-1.3,0.6-2.2,1.5-2.9,2.7h-0.4l-0.9-3.2h-5.2v24.9h6.8V22.9c0-2.9,0.4-5,1.2-6.3c0.8-1.3,2-1.9,3.8-1.9c1.3,0,2.2,0.4,2.8,1.3
		c0.6,0.9,0.9,2.2,0.9,4v14.5h6.8V22.2c0-2.6,0.4-4.5,1.2-5.7c0.8-1.2,2.1-1.8,3.7-1.8c1.3,0,2.2,0.4,2.8,1.3c0.6,0.9,0.9,2.2,0.9,4
		v14.5h6.8V18.4c0-3.2-0.7-5.5-2.2-7C183.4,10,181.2,9.3,178.4,9.3z"/>
	<path class="st0" d="M197.4,0c-2.5,0-3.7,1.1-3.7,3.3c0,2.2,1.2,3.3,3.7,3.3c1.2,0,2.2-0.3,2.8-0.9c0.6-0.6,0.9-1.4,0.9-2.5
		C201.1,1.1,199.8,0,197.4,0z"/>
	<rect x="194" y="9.8" class="st0" width="6.8" height="24.9"/>
	<polygon class="st0" points="224.8,14.2 224.8,9.8 206.2,9.8 206.2,14.9 217.1,14.9 205.6,30.6 205.6,34.7 225.2,34.7 225.2,29.5 
		213.6,29.5 	"/>
	<path class="st0" d="M240.4,9.3c-3.7,0-6.6,1.1-8.7,3.4c-2.1,2.3-3.1,5.5-3.1,9.7c0,4.1,1.1,7.2,3.4,9.4c2.3,2.2,5.4,3.3,9.4,3.3
		c1.9,0,3.6-0.1,4.9-0.4c1.4-0.3,2.6-0.7,3.8-1.3v-5.3c-1.5,0.7-2.9,1.2-4.2,1.5c-1.3,0.3-2.8,0.5-4.3,0.5c-1.9,0-3.4-0.5-4.5-1.6
		c-1.1-1.1-1.6-2.6-1.7-4.5h16.1v-3.3c0-3.5-1-6.3-2.9-8.3C246.7,10.3,243.9,9.3,240.4,9.3z M235.7,19.4c0.1-1.7,0.6-3,1.4-3.9
		c0.8-0.9,1.9-1.4,3.4-1.4c1.4,0,2.6,0.5,3.4,1.4c0.8,0.9,1.3,2.2,1.3,3.9H235.7z"/>
	<path class="st0" d="M271,9.3c-1.5,0-3,0.4-4.3,1.3c-1.3,0.9-2.4,2-3.1,3.4h-0.3l-1-4.2h-5.1v24.9h6.8V22c0-2,0.6-3.6,1.8-4.7
		c1.2-1.1,2.9-1.7,5.1-1.7c0.8,0,1.5,0.1,2,0.2l0.5-6.4C272.7,9.4,271.9,9.3,271,9.3z"/>
	<path class="st1" d="M84.9,12.4c-4.5-3.8-12.6-3.6-16.7,1.9c-0.1,0.1-0.2,0.3-0.3,0.5c-1.4-2.7-3.5-3.5-6-3.5c0,1,0.3,1.8,1.8,4.4
		c-1.4,0-2.7,0.3-3.9,1.1c1.4,1.9,3,3.2,5.3,3.2c0.8-1.9,1.5-2.8,1.5-2.8c-0.5,1-0.8,2.7-0.8,2.7c0,0.3,0,0.6-0.1,0.8
		c-0.9,7.1,2.9,12.7,9.4,13.6c2.5,0.4,4.9,0.3,7.2-0.6c4.3-1.6,6.8-4.8,7.2-9.8C89.8,19.3,88.4,15.3,84.9,12.4z M86.7,24.4
		c-0.3,1.8-1.5,2.9-3.2,3.4c-1.3,0.3-2.6,0.2-3.8-0.1c-1.3-0.3-2.6-0.3-4-0.1c-1.2,0.2-2.6,0.4-3.8,0.3c-2.3-0.2-3.8-2.1-3.7-4.5
		c0-1.9,1-3.2,2.6-4c1.5-0.8,3.2-1.1,4.9-1.3c1.3-0.1,2.6-0.1,3.9,0c0,0,0.1,0,0.1,0c1.9,0.2,3.7,0.6,5.3,1.8
		C86.5,21,87,22.6,86.7,24.4z"/>
	<path class="st1" d="M73.5,22.1c-1.2-0.4-2.5,0-2.8,0.9c-0.1,0.3-0.1,0.6,0,0.9c0.2,0.8,0.9,1.2,1.9,1.2c1.1,0,1.7-0.3,2-1
		C74.9,23.3,74.4,22.4,73.5,22.1z"/>
	<path class="st1" d="M83.1,22.1c-1.2-0.4-2.5,0-2.8,0.9c-0.1,0.3-0.1,0.6,0,0.9c0.2,0.8,0.9,1.2,1.9,1.2c1.1,0,1.7-0.3,2-1
		C84.5,23.3,84.1,22.4,83.1,22.1z"/>
</g>
</svg>
