<?xml version="1.0" encoding="utf-8"?>
<!-- Generator: Adobe Illustrator 25.4.1, SVG Export Plug-In . SVG Version: 6.00 Build 0)  -->
<svg version="1.1" id="Layer_1" xmlns="http://www.w3.org/2000/svg" xmlns:xlink="http://www.w3.org/1999/xlink" x="0px" y="0px"
	 viewBox="0 0 300 36.6" style="enable-background:new 0 0 300 36.6;" xml:space="preserve">
<style type="text/css">
	.st0{fill:#FFFFFF;}
</style>
<g>
	<path class="st0" d="M34.2,5.6c-6.1-5.2-17-4.9-22.6,2.5c-0.1,0.2-0.3,0.4-0.5,0.7C9.2,5.2,6.3,4.1,2.9,4.1c0,1.4,0.4,2.5,2.4,6
		c-1.9,0.1-3.6,0.4-5.3,1.5c1.9,2.6,4.1,4.4,7.2,4.4c1-2.6,2.1-3.7,2.1-3.7c-0.7,1.3-1.1,3.7-1.1,3.7c0,0.4-0.1,0.8-0.1,1.2
		c-1.3,9.6,4,17.2,12.7,18.5c3.3,0.5,6.6,0.4,9.8-0.8c5.8-2.2,9.2-6.6,9.7-13.3C40.8,15,38.9,9.6,34.2,5.6z M36.6,21.9
		c-0.5,2.5-2,4-4.3,4.6c-1.7,0.5-3.5,0.3-5.2-0.1c-1.8-0.4-3.6-0.5-5.4-0.1c-1.7,0.3-3.5,0.5-5.2,0.3c-3.1-0.3-5.1-2.9-5-6.1
		c0-2.6,1.4-4.3,3.5-5.4c2.1-1.1,4.3-1.5,6.7-1.7c1.8-0.1,3.6-0.1,5.3,0c0.1,0,0.1,0,0.2,0c2.5,0.3,5,0.8,7.2,2.4
		C36.3,17.4,37,19.4,36.6,21.9z"/>
	<path class="st0" d="M18.7,18.8c-1.6-0.5-3.4,0.1-3.8,1.3c-0.1,0.4-0.1,0.8,0,1.2c0.3,1.1,1.2,1.6,2.6,1.6c1.4,0,2.4-0.5,2.7-1.4
		C20.6,20.4,20,19.2,18.7,18.8z"/>
	<path class="st0" d="M31.8,18.8c-1.6-0.5-3.4,0.1-3.8,1.3c-0.1,0.4-0.1,0.8,0,1.2c0.3,1.1,1.2,1.6,2.6,1.6c1.4,0,2.4-0.5,2.7-1.4
		C33.7,20.4,33,19.2,31.8,18.8z"/>
</g>
<path class="st0" d="M88,18.8c0,5.6-1.6,9.9-4.8,12.8c-3.2,3-7.8,4.5-13.8,4.5h-9.6v-34h10.7c5.5,0,9.8,1.5,12.9,4.4
	C86.5,9.5,88,13.6,88,18.8z M80.5,19c0-7.3-3.2-10.9-9.7-10.9H67v22.1h3.1C77.1,30.2,80.5,26.5,80.5,19z"/>
<path class="st0" d="M95,2.2h10.6c4.8,0,8.3,0.7,10.5,2.1c2.2,1.4,3.3,3.5,3.3,6.5c0,2-0.5,3.7-1.4,5c-1,1.3-2.2,2.1-3.8,2.3v0.2
	c2.2,0.5,3.7,1.4,4.7,2.7c1,1.3,1.4,3.1,1.4,5.2c0,3.1-1.1,5.5-3.4,7.2c-2.2,1.7-5.3,2.6-9.1,2.6H95V2.2z M102.2,15.6h4.2
	c2,0,3.4-0.3,4.2-0.9s1.3-1.6,1.3-3c0-1.3-0.5-2.2-1.4-2.8c-1-0.6-2.5-0.8-4.5-0.8h-3.8V15.6z M102.2,21.3v8.8h4.7
	c2,0,3.4-0.4,4.4-1.1c0.9-0.8,1.4-1.9,1.4-3.5c0-2.8-2-4.2-6-4.2H102.2z"/>
<path class="st0" d="M149.7,36.1h-7.1V21c0-1.9-0.3-3.3-0.9-4.2c-0.6-0.9-1.6-1.4-3-1.4c-1.8,0-3.1,0.7-3.9,2
	c-0.8,1.3-1.2,3.5-1.2,6.6v12.2h-7.1v-26h5.4l1,3.3h0.4c0.7-1.2,1.7-2.1,3-2.8c1.3-0.7,2.8-1,4.5-1c3.9,0,6.5,1.3,7.9,3.8h0.6
	c0.7-1.2,1.7-2.1,3.1-2.8c1.4-0.7,2.9-1,4.6-1c2.9,0,5.2,0.8,6.7,2.3c1.5,1.5,2.3,3.9,2.3,7.3v16.9h-7.1V21c0-1.9-0.3-3.3-0.9-4.2
	c-0.6-0.9-1.6-1.4-3-1.4c-1.7,0-3,0.6-3.9,1.9c-0.9,1.2-1.3,3.2-1.3,5.9V36.1z"/>
<path class="st0" d="M189.6,36.1l-1.4-3.5h-0.2c-1.2,1.5-2.4,2.5-3.7,3.1c-1.3,0.6-2.9,0.9-4.9,0.9c-2.5,0-4.5-0.7-5.9-2.1
	c-1.4-1.4-2.1-3.5-2.1-6.1c0-2.8,1-4.8,2.9-6.1c1.9-1.3,4.8-2,8.7-2.2l4.5-0.1v-1.1c0-2.6-1.3-3.9-4-3.9c-2.1,0-4.5,0.6-7.3,1.9
	l-2.3-4.8c3-1.6,6.3-2.3,9.9-2.3c3.5,0,6.2,0.8,8,2.3c1.9,1.5,2.8,3.8,2.8,6.9v17.3H189.6z M187.5,24.1l-2.7,0.1
	c-2.1,0.1-3.6,0.4-4.6,1.1c-1,0.7-1.5,1.7-1.5,3.1c0,2,1.1,3,3.4,3c1.6,0,3-0.5,3.9-1.4s1.5-2.2,1.5-3.8V24.1z"/>
<path class="st0" d="M220,28.4c0,2.7-0.9,4.7-2.8,6.1c-1.8,1.4-4.6,2.1-8.3,2.1c-1.9,0-3.5-0.1-4.8-0.4s-2.6-0.6-3.7-1.1v-5.9
	c1.3,0.6,2.8,1.1,4.4,1.6c1.6,0.4,3.1,0.6,4.4,0.6c2.6,0,3.9-0.7,3.9-2.2c0-0.6-0.2-1-0.5-1.4c-0.3-0.3-0.9-0.7-1.8-1.2
	c-0.8-0.4-2-1-3.3-1.5c-2-0.8-3.5-1.6-4.4-2.3c-0.9-0.7-1.6-1.5-2-2.4c-0.4-0.9-0.6-2.1-0.6-3.4c0-2.3,0.9-4.1,2.7-5.4
	c1.8-1.3,4.3-1.9,7.6-1.9c3.1,0,6.2,0.7,9.1,2l-2.1,5.1c-1.3-0.6-2.5-1-3.6-1.4c-1.1-0.4-2.3-0.5-3.5-0.5c-2.1,0-3.1,0.6-3.1,1.7
	c0,0.6,0.3,1.2,1,1.6c0.7,0.5,2.1,1.2,4.4,2.1c2,0.8,3.5,1.6,4.5,2.3c0.9,0.7,1.6,1.5,2.1,2.5C219.8,26,220,27.1,220,28.4z"/>
<path class="st0" d="M232.3,22l3.1-3.9l7.3-7.9h8l-10.3,11.3l10.9,14.7h-8.2l-7.5-10.5l-3,2.4v8.1h-7.1V0h7.1v16.1L232.3,22
	L232.3,22z"/>
<path class="st0" d="M266.8,36.6c-4.2,0-7.4-1.2-9.8-3.5c-2.4-2.3-3.5-5.6-3.5-9.8c0-4.4,1.1-7.7,3.3-10.1c2.2-2.4,5.2-3.6,9-3.6
	c3.7,0,6.5,1,8.6,3.1c2,2.1,3.1,5,3.1,8.7v3.4h-16.7c0.1,2,0.7,3.6,1.8,4.7c1.1,1.1,2.7,1.7,4.7,1.7c1.6,0,3-0.2,4.4-0.5
	c1.4-0.3,2.8-0.8,4.4-1.6v5.5c-1.2,0.6-2.6,1.1-4,1.4C270.5,36.5,268.8,36.6,266.8,36.6z M265.8,14.7c-1.5,0-2.7,0.5-3.5,1.4
	c-0.9,1-1.3,2.3-1.5,4.1h9.9c0-1.7-0.5-3.1-1.4-4.1C268.5,15.2,267.3,14.7,265.8,14.7z"/>
<path class="st0" d="M297.6,9.7c1,0,1.8,0.1,2.4,0.2l-0.5,6.6c-0.6-0.2-1.3-0.2-2.1-0.2c-2.3,0-4,0.6-5.3,1.7
	c-1.3,1.2-1.9,2.8-1.9,4.9v13.2h-7.1v-26h5.4l1,4.4h0.3c0.8-1.5,1.9-2.6,3.3-3.5C294.5,10.1,296,9.7,297.6,9.7z"/>
</svg>
