<svg height="512.008pt" viewBox="0 0 512.008 512.008" width="512.008pt" xmlns="http://www.w3.org/2000/svg"><path d="m488 232c-10.414062 0-19.214844 6.710938-22.527344 16h-25.679687c-1.730469-40.089844-16.34375-76.871094-39.800781-106.34375v-61.65625h17.472656c3.3125 9.289062 12.109375 16 22.527344 16 13.230468 0 24-10.769531 24-24s-10.769532-24-24-24c-10.417969 0-19.214844 6.710938-22.527344 16h-25.464844c-4.425781 0-8 3.574219-8 8v52c-31.359375-30.414062-73.457031-49.792969-120-51.800781v-25.679688c9.289062-3.304687 16-12.105469 16-22.519531 0-13.230469-10.769531-24-24-24s-24 10.769531-24 24c0 10.414062 6.710938 19.214844 16 22.527344v25.679687c-46.542969 2-88.640625 21.386719-120 51.800781v-52.007812c0-4.425781-3.585938-8-8-8h-25.472656c-3.3125-9.289062-12.113282-16-22.527344-16-13.230469 0-24 10.769531-24 24s10.769531 24 24 24c10.414062 0 19.214844-6.710938 22.527344-16h17.472656v61.65625c-23.457031 29.472656-38.070312 66.253906-39.800781 106.34375h-25.679688c-3.304687-9.289062-12.105469-16-22.519531-16-13.230469 0-24 10.769531-24 24s10.769531 24 24 24c10.414062 0 19.214844-6.710938 22.527344-16h25.679687c1.730469 40.089844 16.34375 76.871094 39.800781 106.34375v61.65625h-17.472656c-3.3125-9.289062-12.109375-16-22.527344-16-13.230468 0-24 10.769531-24 24s10.769532 24 24 24c10.417969 0 19.214844-6.710938 22.527344-16h25.464844c4.414062 0 8-3.574219 8-8v-52c31.359375 30.414062 73.457031 49.792969 120 51.800781v25.679688c-9.289062 3.3125-16 12.113281-16 22.527343 0 13.230469 10.769531 24 24 24s24-10.769531 24-24c0-10.414062-6.710938-19.214843-16-22.527343v-25.679688c46.542969-2 88.640625-21.386719 120-51.800781v52c0 4.425781 3.574219 8 8 8h25.472656c3.3125 9.289062 12.113282 16 22.527344 16 13.230469 0 24-10.769531 24-24s-10.769531-24-24-24c-10.414062 0-19.214844 6.710938-22.527344 16h-17.472656v-61.65625c23.457031-29.472656 38.070312-66.253906 39.800781-106.34375h25.679688c3.3125 9.289062 12.113281 16 22.527343 16 13.230469 0 24-10.769531 24-24s-10.777343-24-24.007812-24zm-48-168c4.414062 0 8 3.585938 8 8s-3.585938 8-8 8-8-3.585938-8-8 3.585938-8 8-8zm-368 16c-4.40625 0-8-3.585938-8-8s3.59375-8 8-8 8 3.585938 8 8-3.59375 8-8 8zm0 368c-4.40625 0-8-3.585938-8-8s3.59375-8 8-8 8 3.585938 8 8-3.59375 8-8 8zm368-16c4.414062 0 8 3.585938 8 8s-3.585938 8-8 8-8-3.585938-8-8 3.585938-8 8-8zm-46.328125-272h-52.273437c-11.757813-28.175781-28.453126-51.457031-48.574219-67.808594 41.503906 9.328125 77.207031 34.015625 100.847656 67.808594zm-145.671875-67.695312v67.695312h-59.816406c14.351562-30.945312 35.425781-55.039062 59.816406-67.695312zm16-.007813c24.441406 12.671875 45.472656 36.742187 59.816406 67.703125h-59.816406zm-8-76.296875c4.40625 0 8 3.585938 8 8s-3.59375 8-8 8-8-3.585938-8-8 3.59375-8 8-8zm-36.769531 76.183594c-20.109375 16.351562-36.839844 39.648437-48.621094 67.816406h-52.289063c23.65625-33.808594 59.382813-58.503906 100.910157-67.816406zm-195.230469 171.816406c-4.40625 0-8-3.585938-8-8s3.59375-8 8-8 8 3.585938 8 8-3.59375 8-8 8zm94.328125 88h52.28125c11.757813 28.175781 28.460937 51.457031 48.582031 67.808594-41.511718-9.328125-77.222656-34.007813-100.863281-67.808594zm145.671875 67.703125v-67.703125h59.816406c-14.34375 30.960938-35.375 55.03125-59.816406 67.703125zm-16 0c-24.441406-12.671875-45.472656-36.742187-59.808594-67.703125h59.808594zm8 76.296875c-4.40625 0-8-3.585938-8-8s3.59375-8 8-8 8 3.585938 8 8-3.59375 8-8 8zm36.824219-76.191406c20.121093-16.34375 36.816406-39.632813 48.574219-67.808594h52.273437c-23.640625 33.792969-59.34375 58.480469-100.847656 67.808594zm110.871093-83.808594h-56.269531c2.367188-7.160156 4.4375-14.566406 6.175781-22.207031l-15.59375-3.5625c-2.03125 8.9375-4.617187 17.523437-7.609374 25.769531h-66.398438v-24h-16v24h-66.390625c-2.992187-8.246094-5.578125-16.832031-7.617187-25.769531l-15.601563 3.5625c1.746094 7.640625 3.816406 15.046875 6.175781 22.199219h-56.269531c-11.738281-21.578126-18.664063-46.054688-19.898437-72h15.601562v-16h-15.59375c1.234375-25.945313 8.160156-50.425782 19.898438-72h56.3125c-2.175782 6.574218-4.136719 13.34375-5.785157 20.335937l15.566407 3.671875c1.960937-8.304688 4.417968-16.304688 7.210937-24.007812h66.390625v24h16v-24h66.398438c2.992187 8.246093 5.578124 16.839843 7.617187 25.785156l15.59375-3.5625c-1.746094-7.648438-3.816406-15.054688-6.183594-22.214844h56.269531c11.738282 21.574219 18.664063 46.054688 19.898438 72h-15.59375v16h15.59375c-1.234375 25.945312-8.160156 50.425781-19.898438 72zm84.304688-72c-4.414062 0-8-3.585938-8-8s3.585938-8 8-8 8 3.585938 8 8-3.585938 8-8 8zm0 0"/><path d="m120 232v48c0 8.824219 7.175781 16 16 16h32c4.414062 0 8-3.574219 8-8v-32c0-4.425781-3.585938-8-8-8h-16v16h8v16h-24v-48h40v-16h-40c-8.824219 0-16 7.175781-16 16zm0 0"/><path d="m224 216h-24c-4.414062 0-8 3.574219-8 8v64c0 4.425781 3.585938 8 8 8h24c13.230469 0 24-10.769531 24-24v-32c0-13.230469-10.769531-24-24-24zm8 56c0 4.414062-3.59375 8-8 8h-16v-48h16c4.40625 0 8 3.585938 8 8zm0 0"/><path d="m296 216h-24c-4.425781 0-8 3.574219-8 8v72h16v-24h16c13.230469 0 24-10.769531 24-24v-8c0-13.230469-10.769531-24-24-24zm8 32c0 4.414062-3.585938 8-8 8h-16v-24h16c4.414062 0 8 3.585938 8 8zm0 0"/><path d="m368 216h-24c-4.425781 0-8 3.574219-8 8v72h16v-24h17.558594l6.441406 10.296875v13.703125h16v-16c0-1.503906-.425781-2.96875-1.214844-4.238281l-6.433594-10.289063c4.679688-4.382812 7.648438-10.570312 7.648438-17.472656v-8c0-13.230469-10.769531-24-24-24zm-16 40v-24h16c4.414062 0 8 3.585938 8 8v8c0 4.414062-3.585938 8-8 8zm0 0"/></svg>